<?xml version="1.0" encoding="UTF-8" standalone="no"?>
<svg
   xmlns:dc="http://purl.org/dc/elements/1.1/"
   xmlns:cc="http://creativecommons.org/ns#"
   xmlns:rdf="http://www.w3.org/1999/02/22-rdf-syntax-ns#"
   xmlns:svg="http://www.w3.org/2000/svg"
   xmlns="http://www.w3.org/2000/svg"
   xmlns:xlink="http://www.w3.org/1999/xlink"
   xmlns:sodipodi="http://sodipodi.sourceforge.net/DTD/sodipodi-0.dtd"
   xmlns:inkscape="http://www.inkscape.org/namespaces/inkscape"
   sodipodi:docname="cover-cxfreeze-windows.svg"
   inkscape:version="1.0beta2 (unknown)"
   inkscape:export-ydpi="96"
   inkscape:export-xdpi="96"
   inkscape:export-filename="/home/natorsc/Projetos/gui-python-gtk/docs/imgs/cxfreeze/windows/cover-cxfreeze-windows.svg.png"
   id="svg8"
   version="1.1"
   viewBox="0 0 264.58332 111.125"
   height="420"
   width="1000">
  <defs
     id="defs2">
    <linearGradient
       id="L0">
      <stop
         style="stop-color:#fe798e"
         id="stop109" />
      <stop
         style="stop-color:#9c2219"
         offset="1"
         id="stop111" />
    </linearGradient>
    <linearGradient
       id="L1">
      <stop
         style="stop-color:#bff872"
         id="stop114" />
      <stop
         style="stop-color:#7de567"
         offset="1"
         id="stop116" />
    </linearGradient>
    <linearGradient
       id="L2">
      <stop
         style="stop-color:#92cbe2"
         id="stop119" />
      <stop
         style="stop-color:#7f95fe"
         offset="1"
         id="stop121" />
    </linearGradient>
    <linearGradient
       xlink:href="#L2"
       id="L3"
       gradientUnits="userSpaceOnUse"
       gradientTransform="translate(92.2254,-0.313709)"
       x1="-143"
       y1="207.36218"
       x2="-129.5"
       y2="108.86218" />
    <linearGradient
       xlink:href="#L1"
       id="L4"
       gradientUnits="userSpaceOnUse"
       gradientTransform="translate(92.2254,-0.313709)"
       x1="-133.5"
       y1="221.86218"
       x2="-50"
       y2="279.36218" />
    <linearGradient
       xlink:href="#L0"
       id="L5"
       gradientUnits="userSpaceOnUse"
       gradientTransform="translate(92.2254,-0.313709)"
       x1="-157.5"
       y1="222.86218"
       x2="-247.5"
       y2="276.86218" />
    <linearGradient
       id="linearGradient11301"
       inkscape:collect="always">
      <stop
         id="stop11303"
         offset="0"
         style="stop-color:#ffe052;stop-opacity:1" />
      <stop
         id="stop11305"
         offset="1"
         style="stop-color:#ffc331;stop-opacity:1" />
    </linearGradient>
    <linearGradient
       gradientUnits="userSpaceOnUse"
       y2="168.1012"
       x2="147.77737"
       y1="111.92053"
       x1="89.136749"
       id="linearGradient11307"
       xlink:href="#linearGradient11301"
       inkscape:collect="always" />
    <linearGradient
       id="linearGradient9515"
       inkscape:collect="always">
      <stop
         id="stop9517"
         offset="0"
         style="stop-color:#387eb8;stop-opacity:1" />
      <stop
         id="stop9519"
         offset="1"
         style="stop-color:#366994;stop-opacity:1" />
    </linearGradient>
    <linearGradient
       gradientUnits="userSpaceOnUse"
       y2="131.85291"
       x2="110.14919"
       y1="77.070274"
       x1="55.549179"
       id="linearGradient9521"
       xlink:href="#linearGradient9515"
       inkscape:collect="always" />
  </defs>
  <sodipodi:namedview
     inkscape:document-rotation="0"
     inkscape:window-maximized="1"
     inkscape:window-y="0"
     inkscape:window-x="0"
     inkscape:window-height="704"
     inkscape:window-width="1366"
     units="px"
     showgrid="false"
     inkscape:current-layer="layer1"
     inkscape:document-units="px"
     inkscape:cy="203.08107"
     inkscape:cx="497.89336"
     inkscape:zoom="0.98994948"
     inkscape:pageshadow="2"
     inkscape:pageopacity="0.0"
     borderopacity="1.0"
     bordercolor="#666666"
     pagecolor="#ffffff"
     id="base" />
  <metadata
     id="metadata5">
    <rdf:RDF>
      <cc:Work
         rdf:about="">
        <dc:format>image/svg+xml</dc:format>
        <dc:type
           rdf:resource="http://purl.org/dc/dcmitype/StillImage" />
        <dc:title />
      </cc:Work>
    </rdf:RDF>
  </metadata>
  <g
     transform="translate(0,-190.10832)"
     id="layer1"
     inkscape:groupmode="layer"
     inkscape:label="Camada 1">
    <g
       transform="matrix(0.62015492,0,0,0.62499992,2.0100355,93.449493)"
       id="g4137">
      <g
         id="g137"
         transform="matrix(0.260261,0,0,0.260261,394.61062,184.94272)">
        <path
           id="path129"
           d="M -58.11348,213.41831 -162.26826,151.37974 -37.01785,100.04846 68.1307,158.15264 Z"
           style="fill:url(#L3)"
           inkscape:connector-curvature="0" />
        <path
           id="path131"
           d="M -51.56037,213.5916 72.03976,159.30293 54.30386,283.51375 -62.14067,350.24024 Z"
           style="fill:url(#L4)"
           inkscape:connector-curvature="0" />
        <path
           id="path133"
           d="m -59.56037,347.18826 -104.5,-64.2226 0.44871,-123.64016 108.42612,56.16705 z"
           style="fill:url(#L5)"
           inkscape:connector-curvature="0" />
        <path
           id="path135"
           d="m -66.27108,352.00632 c -3.03359,-1.77723 -19.05393,-12.26147 -35.60076,-23.29832 -39.19332,-26.14222 -51.045,-33.71051 -59.3546,-37.90292 -11.24718,-5.67451 -10.19522,0.90769 -10.54141,-65.95847 -0.32347,-62.47785 -1.11405,-73.33312 4.78713,-71.74789 -4.61585,-4.39386 17.09024,-11.1651 51.06914,-26.29252 33.1931,-14.77758 69.86855,-29.67652 77.92113,-31.654469 2.1863,-0.53702 7.4047,1.66182 27.07664,11.409099 43.23255,21.42135 78.90974,41.17107 83.46305,46.20242 1.03835,1.14737 2.48629,2.08612 3.21764,2.08612 2.07991,0 2.60644,4.10831 1.49156,11.63814 -0.56306,3.80291 -4.61651,28.57569 -9.00766,55.05062 -4.39116,26.47494 -8.2857,50.84391 -8.65453,54.15328 -1.30614,11.71935 -0.93639,11.28244 -18.85344,22.27769 -8.94136,5.4871 -31.60045,18.69509 -50.35352,29.3511 -18.75307,10.65602 -37.42542,21.33709 -41.49408,23.73572 -4.06867,2.39863 -7.90452,4.32078 -8.52413,4.27144 -0.6196,-0.0493 -3.60857,-1.5438 -6.64216,-3.32104 z m 4.40002,-25.92228 c 0.33119,-8.96287 0.96367,-34.57285 1.4055,-56.91108 0.98096,-49.59483 1.24182,-48.04842 -9.29637,-55.1105 -12.92034,-8.65846 -26.89399,-16.7067 -50.66243,-29.17944 -12.96168,-6.80178 -27.1641,-14.52705 -31.56092,-17.16726 -5.47412,-3.28711 -8.31934,-4.4755 -9.02555,-3.76978 -1.28485,1.28394 -1.38076,53.18027 -0.16532,89.45455 l 0.86599,25.84535 7.15671,4.14124 c 6.17774,3.57476 42.07876,27.70182 76.85399,51.64924 5.79139,3.98816 11.2715,7.27203 12.17802,7.2975 1.43941,0.0404 1.72449,-2.01805 2.25038,-16.24982 z m -61.58341,-44.44451 1.52585,-50.07301 -19.05393,-10.03809 2.48847,-20.6753 60.32982,28.67648 -1.12857,19.40462 -21.94131,-9.03557 c -2.78755,11.18838 -3.31773,33.66358 -4.91453,50.80571 z m 113.84376,35.13163 c 43.78422,-25.04018 58.57045,-34.26465 59.12441,-36.88508 0.25452,-1.20395 1.19269,-7.15304 2.08481,-13.22022 0.89214,-6.06717 4.74638,-29.96649 8.56499,-53.10959 6.38841,-38.71767 7.71569,-48.67851 6.48635,-48.67851 -1.29676,0 -24.77802,10.5532 -54.69954,24.58367 -18.47729,8.66417 -39.0104,18.24467 -45.62914,21.28999 -6.61873,3.04532 -12.59548,6.05467 -13.28165,6.68744 -2.05423,1.89432 -6.71543,116.72184 -4.92726,121.38172 0.58004,1.51156 1.30586,1.33417 6.42291,-1.5698 3.17293,-1.80067 19.30729,-11.01649 35.85412,-20.47962 z m -21.91356,-17.19703 c -0.35348,-26.57926 -2.42911,-52.8141 3.51444,-80.65277 l 12.47874,-0.22651 1.06112,38.15463 43.29333,-52.72898 20.39522,-5.30591 -38.04741,52.13185 35.24653,16.86419 -14.5776,9.38504 -35.92669,-15.97513 -13.04115,6.451 -0.42877,25.66169 z m -13.46508,-93.95037 c 2.91142,-1.30683 24.24714,-11.39557 47.4127,-22.41941 23.16557,-11.02384 45.05251,-21.31273 48.63766,-22.8642 9.48201,-4.10331 9.87247,-4.66659 5.31402,-7.66615 -7.02078,-4.61986 -42.67815,-23.59261 -67.69672,-36.02043 l -24.77626,-12.30745 -8.31741,2.80924 c -11.73227,3.96262 -45.13437,17.88808 -73.93701,30.8246 -30.09627,13.51756 -34.16282,15.56116 -34.16282,17.1682 0,0.69731 6.65634,4.95124 14.79187,9.45319 26.12045,14.45422 82.91185,43.36778 85.21268,43.38337 1.22528,0.008 4.60986,-1.05413 7.52129,-2.36096 z m -15.76612,-16.07809 c -14.52525,-3.5785 -31.05682,-11.96973 -35.33563,-17.93597 -3.38769,-4.72368 -6.28216,-12.37976 -6.28216,-16.61673 0,-5.10904 3.21234,-12.35556 7.40755,-16.71026 5.31637,-5.51847 12.71961,-7.85709 31.93284,-10.08729 19.09622,-2.21663 35.60712,-1.53172 45.45813,1.88575 9.28392,3.22071 13.0464,5.2261 14.95915,7.97319 4.99642,7.17574 8.54887,13.16524 8.54887,14.41351 0,1.85319 -4.63973,3.60014 -7.94621,2.99192 -1.42097,-0.26139 -4.25644,-0.74811 -6.30104,-1.08159 -3.01048,-0.49103 -4.14458,-1.36629 -5.96326,-4.6022 -2.57569,-4.58282 -9.32934,-9.25782 -15.87524,-10.98913 -9.99885,-2.64459 -37.44673,-0.43371 -45.90059,3.69719 -4.77643,2.33396 -7.34403,7.44829 -8.03006,15.99477 -0.4676,5.82517 -0.27987,6.7296 1.87708,9.04332 2.92077,3.13306 11.11389,7.35097 20.19907,10.39874 5.062,1.69812 7.94757,2.11026 11.43147,1.63274 8.11235,-1.11192 9.08389,-3.22993 4.25362,-9.27308 -4.16567,-5.21167 -5.17732,-8.03737 -3.79934,-10.61216 0.9665,-1.8059 1.77307,-2.00083 6.33211,-1.5303 6.46036,0.66677 20.06008,5.84516 23.26971,8.86045 2.82515,2.65409 3.2723,8.88228 0.81417,11.34041 -2.80207,2.80207 -15.24248,9.72955 -20.09493,11.18992 -5.65795,1.70279 -14.08438,1.70954 -20.95531,0.0168 z"
           style="fill:#000000"
           inkscape:connector-curvature="0" />
      </g>
      <g
         id="g4092">
        <g
           transform="matrix(0.13585521,0,0,0.13585521,5.0635287,209.68749)"
           id="g107">
          <g
             transform="translate(1,2)"
             id="g38">
            <polyline
               style="fill:#ffe100"
               points="487.498,8.072 487.498,232.177 235.695,232.177 235.695,45.843  "
               id="polyline10" />
            <polygon
               style="fill:#00da6c"
               points="202.121,50.039 202.121,234.695 34.252,234.695 34.252,78.577 "
               id="polygon12" />
            <polyline
               style="fill:#ffffff"
               points="9.072,78.577 9.072,234.695 34.252,234.695 34.252,78.577  "
               id="polyline14" />
            <polygon
               style="fill:#3db9f9"
               points="487.498,486.498 487.498,268.269 235.695,268.269 235.695,448.728 "
               id="polygon16" />
            <polygon
               style="fill:#63d3fd"
               points="462.318,486.498 462.318,268.269 235.695,268.269 235.695,448.728 "
               id="polygon18" />
            <polygon
               style="fill:#ffffff"
               points="202.121,444.531 202.121,268.269 9.072,268.269 9.072,415.993 "
               id="polygon20" />
            <polygon
               style="fill:#ffe100"
               points="202.121,444.531 202.121,268.269 34.252,268.269 34.252,415.993 "
               id="polygon22" />
            <polyline
               style="fill:#dd3859"
               points="235.695,45.843 235.695,232.177 487.498,232.177 487.498,8.072  "
               id="polyline24" />
            <polyline
               style="fill:#e4667f"
               points="235.695,45.843 235.695,232.177 462.318,232.177 462.318,8.072  "
               id="polyline26" />
            <path
               inkscape:connector-curvature="0"
               d="M 495.892,240.57 H 227.302 V 38.289 l 74.702,-10.911 c 4.197,-0.839 9.233,2.518 9.233,6.715 0.839,4.197 -2.518,9.233 -6.715,9.233 l -60.433,9.233 V 223.785 H 479.105 V 18.144 L 354.043,36.61 c -4.197,0.839 -9.233,-2.518 -9.233,-6.715 -0.839,-4.197 2.518,-9.233 6.715,-9.233 L 495.892,-2 Z"
               id="path28" />
            <path
               inkscape:connector-curvature="0"
               d="M 210.515,243.089 H 0.679 V 71.023 L 210.515,39.967 Z M 17.466,226.302 H 193.728 V 59.272 L 17.466,85.292 Z"
               id="path30" />
            <path
               inkscape:connector-curvature="0"
               d="M 495.892,496.57 227.302,456.281 V 259.875 h 268.59 z M 244.089,442.013 479.105,477.265 V 276.662 H 244.089 Z"
               id="path32" />
            <path
               inkscape:connector-curvature="0"
               d="M 210.515,454.603 0.679,423.548 V 259.875 H 210.515 Z M 17.466,409.279 193.728,435.299 V 276.662 H 17.466 Z"
               id="path34" />
            <path
               inkscape:connector-curvature="0"
               d="m 336.416,33.252 c 0,-5.036 -3.357,-8.393 -8.393,-8.393 -5.036,0 -8.393,3.357 -8.393,8.393 0,5.036 3.357,8.393 8.393,8.393 5.036,10e-4 8.393,-3.356 8.393,-8.393"
               id="path36" />
          </g>
          <g
             id="g40" />
          <g
             id="g42" />
          <g
             id="g44" />
          <g
             id="g46" />
          <g
             id="g48" />
          <g
             id="g50" />
          <g
             id="g52" />
          <g
             id="g54" />
          <g
             id="g56" />
          <g
             id="g58" />
          <g
             id="g60" />
          <g
             id="g62" />
          <g
             id="g64" />
          <g
             id="g66" />
          <g
             id="g68" />
        </g>
        <g
           inkscape:label="Calque 1"
           id="layer1-7"
           transform="matrix(0.19849878,0,0,0.19849878,-49.96143,198.98436)">
          <g
             id="g1894"
             transform="translate(428.42338,184.2561)">
            <path
               inkscape:connector-curvature="0"
               style="color:#000000;display:inline;overflow:visible;visibility:visible;opacity:1;fill:url(#linearGradient9521);fill-opacity:1;fill-rule:nonzero;stroke:none;stroke-width:1;stroke-linecap:butt;stroke-linejoin:miter;stroke-miterlimit:4;stroke-dasharray:none;stroke-dashoffset:0;stroke-opacity:1;marker:none;marker-start:none;marker-mid:none;marker-end:none"
               d="M 99.75,67.46875 C 71.718268,67.468752 73.46875,79.625 73.46875,79.625 L 73.5,92.21875 h 26.75 V 96 H 62.875 c 0,0 -17.9375,-2.034276 -17.9375,26.25 -2e-6,28.28427 15.65625,27.28125 15.65625,27.28125 h 9.34375 v -13.125 c 0,0 -0.503652,-15.65625 15.40625,-15.65625 15.9099,0 26.53125,0 26.53125,0 0,0 14.90625,0.24096 14.90625,-14.40625 0,-14.647206 0,-24.21875 0,-24.21875 0,-2e-6 2.26318,-14.65625 -27.03125,-14.65625 z M 85,75.9375 c 2.661429,-2e-6 4.8125,2.151071 4.8125,4.8125 2e-6,2.661429 -2.151071,4.8125 -4.8125,4.8125 -2.661429,2e-6 -4.8125,-2.151071 -4.8125,-4.8125 -2e-6,-2.661429 2.151071,-4.8125 4.8125,-4.8125 z"
               id="path8615" />
            <path
               inkscape:connector-curvature="0"
               id="path8620"
               d="m 100.5461,177.31485 c 28.03174,0 26.28125,-12.15625 26.28125,-12.15625 l -0.0312,-12.59375 h -26.75 v -3.78125 h 37.375 c 0,0 17.9375,2.03427 17.9375,-26.25001 10e-6,-28.284267 -15.65625,-27.281247 -15.65625,-27.281247 h -9.34375 v 13.124997 c 0,0 0.50366,15.65625 -15.40625,15.65625 -15.909902,0 -26.531252,0 -26.531252,0 0,0 -14.90625,-0.24096 -14.90625,14.40626 0,14.6472 0,24.21875 0,24.21875 0,0 -2.26318,14.65625 27.031252,14.65625 z m 14.75,-8.46875 c -2.66143,0 -4.8125,-2.15107 -4.8125,-4.8125 0,-2.66143 2.15107,-4.8125 4.8125,-4.8125 2.66143,0 4.8125,2.15107 4.8125,4.8125 1e-5,2.66143 -2.15107,4.8125 -4.8125,4.8125 z"
               style="color:#000000;display:inline;overflow:visible;visibility:visible;opacity:1;fill:url(#linearGradient11307);fill-opacity:1;fill-rule:nonzero;stroke:none;stroke-width:1;stroke-linecap:butt;stroke-linejoin:miter;stroke-miterlimit:4;stroke-dasharray:none;stroke-dashoffset:0;stroke-opacity:1;marker:none;marker-start:none;marker-mid:none;marker-end:none" />
          </g>
        </g>
      </g>
      <text
         xml:space="preserve"
         style="font-style:normal;font-weight:normal;font-size:42.2584px;line-height:1.25;font-family:sans-serif;letter-spacing:0px;word-spacing:0px;fill:#000000;fill-opacity:1;stroke:none;stroke-width:1.05646"
         x="103.47822"
         y="254.75841"
         id="text192"><tspan
           sodipodi:role="line"
           id="tspan190"
           x="103.47822"
           y="254.75841"
           style="font-style:italic;font-variant:normal;font-weight:bold;font-stretch:normal;font-family:Arial;-inkscape-font-specification:'Arial Bold Italic';stroke-width:1.05646">Cx_Freeze</tspan></text>
    </g>
  </g>
</svg>
